<?xml version="1.0" encoding="UTF-8"?>
<!DOCTYPE svg PUBLIC "-//W3C//DTD SVG 1.1//EN" "http://www.w3.org/Graphics/SVG/1.1/DTD/svg11.dtd">
<svg version="1.1" xmlns="http://www.w3.org/2000/svg" xmlns:xlink="http://www.w3.org/1999/xlink" x="0" y="0" width="780.814" height="316.333" viewBox="0, 0, 780.814, 316.333">
  <g id="Layer_1">
    <g>
      <text transform="matrix(1, 0, 0, 1, 62.884, 136.5)">
        <tspan x="-62.883" y="-11.5" font-family="Avenir-Medium" font-size="31" fill="#656565">AC Input </tspan>
        <tspan x="-54.87" y="30.5" font-family="Avenir-Medium" font-size="31" fill="#656565">(source)</tspan>
      </text>
      <text transform="matrix(1, 0, 0, 1, 360.512, 22)">
        <tspan x="-42.501" y="9" font-family="Avenir-Medium" font-size="31" fill="#656565">Diode</tspan>
      </text>
      <text transform="matrix(1, 0, 0, 1, 518.284, 202)">
        <tspan x="-34.766" y="9.5" font-family="Avenir-Medium" font-size="31" fill="#656565">Load</tspan>
      </text>
      <text transform="matrix(1, 0, 0, 1, 685.43, 119.5)">
        <tspan x="-61.985" y="-11.5" font-family="Avenir-Medium" font-size="31" fill="#656565">Rectified </tspan>
        <tspan x="-69.487" y="30.5" font-family="Avenir-Medium" font-size="31" fill="#656565">waveform</tspan>
      </text>
      <g>
        <g>
          <path d="M379.197,95.002 L336.714,67.285 L336.714,122.464 L379.197,95.002 z" fill="#000000"/>
          <path d="M379.197,95.002 L336.714,67.285 L336.714,122.464 L379.197,95.002 z" fill-opacity="0" stroke="#000000" stroke-width="3"/>
        </g>
        <path d="M385.311,60.566 L385.311,129.182" fill-opacity="0" stroke="#000000" stroke-width="8"/>
      </g>
      <g>
        <g>
          <path d="M624.759,217.672 C624.759,217.672 630.712,162.111 640.067,162.502" fill-opacity="0" stroke="#000000" stroke-width="3"/>
          <path d="M654.951,217.672 C654.951,217.672 648.997,162.111 639.642,162.502" fill-opacity="0" stroke="#000000" stroke-width="3"/>
        </g>
        <path d="M654.951,217.672 L685.93,217.672" fill-opacity="0" stroke="#000000" stroke-width="3"/>
        <g>
          <path d="M685.93,217.672 C685.93,217.672 691.883,162.111 701.239,162.502" fill-opacity="0" stroke="#000000" stroke-width="3"/>
          <path d="M716.122,217.672 C716.122,217.672 710.169,162.111 700.813,162.502" fill-opacity="0" stroke="#000000" stroke-width="3"/>
        </g>
        <path d="M716.123,217.673 L747.102,217.673" fill-opacity="0" stroke="#000000" stroke-width="3"/>
      </g>
      <path d="M145.668,94.5 L579.001,94.5" fill-opacity="0" stroke="#000000" stroke-width="3"/>
      <path d="M579.001,94.5 L579.001,311.833" fill-opacity="0" stroke="#000000" stroke-width="3"/>
      <path d="M579.001,311.833 L145.668,311.833" fill-opacity="0" stroke="#000000" stroke-width="3"/>
      <path d="M145.668,311.833 L145.668,94.5" fill-opacity="0" stroke="#000000" stroke-width="3"/>
      <g>
        <path d="M563.723,150.58 L598.279,150.58 L598.279,260.42 L563.723,260.42 L563.723,150.58 z" fill="#FFFFFF"/>
        <path d="M563.723,150.58 L598.279,150.58 L598.279,260.42 L563.723,260.42 L563.723,150.58 z" fill-opacity="0" stroke="#000000" stroke-width="2"/>
      </g>
      <g>
        <g>
          <path d="M145.668,248.5 C121.919,248.5 102.668,229.248 102.668,205.5 C102.668,181.752 121.919,162.5 145.668,162.5 C169.416,162.5 188.668,181.752 188.668,205.5 C188.668,229.248 169.416,248.5 145.668,248.5 z" fill="#FFFFFF"/>
          <path d="M145.668,248.5 C121.919,248.5 102.668,229.248 102.668,205.5 C102.668,181.752 121.919,162.5 145.668,162.5 C169.416,162.5 188.668,181.752 188.668,205.5 C188.668,229.248 169.416,248.5 145.668,248.5 z" fill-opacity="0" stroke="#000000" stroke-width="3"/>
        </g>
        <g>
          <g>
            <path d="M116.254,206.688 C116.254,206.688 122.054,177.053 131.168,177.262" fill-opacity="0" stroke="#C81919" stroke-width="2"/>
            <path d="M145.668,206.688 C145.668,206.688 139.868,177.053 130.753,177.262" fill-opacity="0" stroke="#C81919" stroke-width="2"/>
          </g>
          <g>
            <path d="M145.668,206.688 C145.668,206.688 151.468,236.322 160.582,236.114" fill-opacity="0" stroke="#C81919" stroke-width="2"/>
            <path d="M175.081,206.688 C175.081,206.688 169.282,236.322 160.167,236.114" fill-opacity="0" stroke="#C81919" stroke-width="2"/>
          </g>
        </g>
        <path d="M107.641,206.134 L183.079,206.134" fill-opacity="0" stroke="#000000" stroke-width="2"/>
      </g>
      <text transform="matrix(1, 0, 0, 1, 406.095, 68.5)">
        <tspan x="-5.688" y="10.5" font-family="Avenir-Medium" font-size="36" fill="#656565">-</tspan>
      </text>
      <text transform="matrix(1, 0, 0, 1, 567.695, 285.833)">
        <tspan x="-5.688" y="10.5" font-family="Avenir-Medium" font-size="36" fill="#656565">-</tspan>
      </text>
      <text transform="matrix(1, 0, 0, 1, 317.395, 68.5)">
        <tspan x="-11.988" y="10.5" font-family="Avenir-Medium" font-size="36" fill="#656565">+</tspan>
      </text>
      <text transform="matrix(1, 0, 0, 1, 561.395, 110.5)">
        <tspan x="-11.988" y="10.5" font-family="Avenir-Medium" font-size="36" fill="#656565">+</tspan>
      </text>
    </g>
  </g>
</svg>
